<svg width="723" height="208" viewBox="0 0 723 208" fill="none" xmlns="http://www.w3.org/2000/svg">
<path d="M272.888 134V79.472H251.384V66.8H309.944V79.472H288.44V134H272.888ZM346.311 134V123.92L345.351 121.712V103.664C345.351 100.464 344.359 97.968 342.375 96.176C340.455 94.384 337.479 93.488 333.447 93.488C330.695 93.488 327.975 93.936 325.287 94.832C322.663 95.664 320.423 96.816 318.567 98.288L313.191 87.824C316.007 85.84 319.399 84.304 323.367 83.216C327.335 82.128 331.367 81.584 335.463 81.584C343.335 81.584 349.447 83.44 353.799 87.152C358.151 90.864 360.327 96.656 360.327 104.528V134H346.311ZM330.567 134.768C326.535 134.768 323.079 134.096 320.199 132.752C317.319 131.344 315.111 129.456 313.575 127.088C312.039 124.72 311.271 122.064 311.271 119.12C311.271 116.048 312.007 113.36 313.479 111.056C315.015 108.752 317.415 106.96 320.679 105.68C323.943 104.336 328.199 103.664 333.447 103.664H347.175V112.4H335.079C331.559 112.4 329.127 112.976 327.783 114.128C326.503 115.28 325.863 116.72 325.863 118.448C325.863 120.368 326.599 121.904 328.071 123.056C329.607 124.144 331.687 124.688 334.311 124.688C336.807 124.688 339.047 124.112 341.031 122.96C343.015 121.744 344.455 119.984 345.351 117.68L347.655 124.592C346.567 127.92 344.583 130.448 341.703 132.176C338.823 133.904 335.111 134.768 330.567 134.768ZM391.257 134.768C386.841 134.768 382.585 134.256 378.489 133.232C374.457 132.144 371.257 130.8 368.889 129.2L373.881 118.448C376.249 119.92 379.033 121.136 382.233 122.096C385.497 122.992 388.697 123.44 391.833 123.44C395.289 123.44 397.721 123.024 399.129 122.192C400.601 121.36 401.337 120.208 401.337 118.736C401.337 117.52 400.761 116.624 399.609 116.048C398.521 115.408 397.049 114.928 395.193 114.608C393.337 114.288 391.289 113.968 389.049 113.648C386.873 113.328 384.665 112.912 382.425 112.4C380.185 111.824 378.137 110.992 376.281 109.904C374.425 108.816 372.921 107.344 371.769 105.488C370.681 103.632 370.137 101.232 370.137 98.288C370.137 95.024 371.065 92.144 372.921 89.648C374.841 87.152 377.593 85.2 381.177 83.792C384.761 82.32 389.049 81.584 394.041 81.584C397.561 81.584 401.145 81.968 404.793 82.736C408.441 83.504 411.481 84.624 413.913 86.096L408.921 96.752C406.425 95.28 403.897 94.288 401.337 93.776C398.841 93.2 396.409 92.912 394.041 92.912C390.713 92.912 388.281 93.36 386.745 94.256C385.209 95.152 384.441 96.304 384.441 97.712C384.441 98.992 384.985 99.952 386.073 100.592C387.225 101.232 388.729 101.744 390.585 102.128C392.441 102.512 394.457 102.864 396.633 103.184C398.873 103.44 401.113 103.856 403.353 104.432C405.593 105.008 407.609 105.84 409.401 106.928C411.257 107.952 412.761 109.392 413.913 111.248C415.065 113.04 415.641 115.408 415.641 118.352C415.641 121.552 414.681 124.4 412.761 126.896C410.841 129.328 408.057 131.248 404.409 132.656C400.825 134.064 396.441 134.768 391.257 134.768ZM437.265 123.44L437.649 105.2L461.745 82.352H479.601L456.465 105.872L448.689 112.208L437.265 123.44ZM424.881 134V62.768H439.857V134H424.881ZM463.377 134L445.905 112.304L455.313 100.688L481.521 134H463.377ZM503.712 97.04H535.968V109.52H503.712V97.04ZM504.864 134H489.312V66.8H540.096V79.28H504.864V134ZM549.568 134V62.768H564.544V134H549.568ZM603.019 134.768C597.515 134.768 592.619 133.616 588.331 131.312C584.107 129.008 580.747 125.872 578.251 121.904C575.819 117.872 574.603 113.296 574.603 108.176C574.603 102.992 575.819 98.416 578.251 94.448C580.747 90.416 584.107 87.28 588.331 85.04C592.619 82.736 597.515 81.584 603.019 81.584C608.459 81.584 613.323 82.736 617.611 85.04C621.899 87.28 625.259 90.384 627.691 94.352C630.123 98.32 631.339 102.928 631.339 108.176C631.339 113.296 630.123 117.872 627.691 121.904C625.259 125.872 621.899 129.008 617.611 131.312C613.323 133.616 608.459 134.768 603.019 134.768ZM603.019 122.48C605.515 122.48 607.755 121.904 609.739 120.752C611.723 119.6 613.291 117.968 614.443 115.856C615.595 113.68 616.171 111.12 616.171 108.176C616.171 105.168 615.595 102.608 614.443 100.496C613.291 98.384 611.723 96.752 609.739 95.6C607.755 94.448 605.515 93.872 603.019 93.872C600.523 93.872 598.283 94.448 596.299 95.6C594.315 96.752 592.715 98.384 591.499 100.496C590.347 102.608 589.771 105.168 589.771 108.176C589.771 111.12 590.347 113.68 591.499 115.856C592.715 117.968 594.315 119.6 596.299 120.752C598.283 121.904 600.523 122.48 603.019 122.48ZM651.751 134L633.127 82.352H647.239L662.695 126.8H655.975L672.103 82.352H684.775L700.423 126.8H693.703L709.639 82.352H722.887L704.167 134H689.671L675.943 95.888H680.359L666.151 134H651.751Z" fill="#E7EAEF"/>
<g filter="url(#filter0_d_135_286)">
<path d="M172.842 168.909C187.89 151.448 194.447 139.928 199.158 112.955C202.74 79.8718 194.47 66.1264 182.365 29.8421C170.098 108.268 140.826 140.146 80.865 199.994C114.697 200.232 146.243 193.233 172.842 168.909Z" fill="#017080"/>
<path d="M68.4227 192.73C47.5373 184.616 36.9991 176.908 21.0532 159.158C97.5576 133.599 135.013 86.688 169.741 24.8683C157.043 90.1376 126.835 143.37 68.4227 192.73Z" fill="#0D9EB2"/>
<path d="M6.26318 129.559C75.6112 102.883 100.974 77.1296 147.056 26.3552C116.575 88.5672 87.2908 115.492 14 147C9.86187 141.223 8.26251 137.127 6.26318 129.559Z" fill="#017080"/>
<path d="M135.575 4.01139C103.296 62.6716 77.5339 84.6895 1.302 113.727C-9.6401 44.2185 49.5348 -16.3912 135.575 4.01139Z" fill="#0D9EB2"/>
</g>
<defs>
<filter id="filter0_d_135_286" x="-2" y="0" width="208" height="208" filterUnits="userSpaceOnUse" color-interpolation-filters="sRGB">
<feFlood flood-opacity="0" result="BackgroundImageFix"/>
<feColorMatrix in="SourceAlpha" type="matrix" values="0 0 0 0 0 0 0 0 0 0 0 0 0 0 0 0 0 0 127 0" result="hardAlpha"/>
<feOffset dx="2" dy="4"/>
<feGaussianBlur stdDeviation="2"/>
<feComposite in2="hardAlpha" operator="out"/>
<feColorMatrix type="matrix" values="0 0 0 0 0 0 0 0 0 0 0 0 0 0 0 0 0 0 0.25 0"/>
<feBlend mode="normal" in2="BackgroundImageFix" result="effect1_dropShadow_135_286"/>
<feBlend mode="normal" in="SourceGraphic" in2="effect1_dropShadow_135_286" result="shape"/>
</filter>
</defs>
</svg>
